<svg viewBox="0 0 640 400" data-background-color="#fdf8f1" preserveAspectRatio="xMidYMid meet" height="400" width="640" xmlns="http://www.w3.org/2000/svg" xmlns:xlink="http://www.w3.org/1999/xlink"><rect width="640" height="400" x="0" y="0" opacity="1" fill="#0000" data-fill-palette-color="background" id="background"></rect><g id="tight-bounds" transform="matrix(1,0,0,1,122.24000000000001,128.69275269534583)"><svg viewBox="0 0 395.52 142.61449460930834" height="142.61449460930834" width="395.52"><g><svg viewBox="0 0 395.52 142.61449460930834" height="142.61449460930834" width="395.52"><g transform="matrix(1,0,0,1,0,73.47464169888882)"><svg viewBox="0 0 395.52 69.1398529104195" height="69.1398529104195" width="395.52"><g id="textblocktransform"><svg viewBox="0 0 395.52 69.1398529104195" height="69.1398529104195" width="395.52" id="textblock"><g><svg viewBox="0 0 395.52 69.1398529104195" height="69.1398529104195" width="395.52"><g transform="matrix(1,0,0,1,0,0)"><svg width="395.52" viewBox="4.777749061584473 -20.41815185546875 280.6797790527344 49.06493377685547" height="69.1398529104195" data-palette-color="#fa4238"><path d="M37.892-12.618l-3.64 18.892c-0.589 3.057-1.713 5.505-3.371 7.345-1.653 1.847-3.612 3.099-5.877 3.756-2.265 0.657-4.628 0.748-7.09 0.274v0c-4.641-0.894-8.018-2.784-10.13-5.67-2.112-2.885-2.726-6.622-1.842-11.211v0l3.51-18.215-4.674-0.9 0.365-1.895c0.538-0.114 1.503-0.172 2.895-0.176 1.394-0.01 2.873 0.136 4.438 0.438v0c1.316 0.254 2.157 0.47 2.523 0.649 0.373 0.18 0.499 0.582 0.379 1.203v0l-3.868 20.071c-0.241 1.25-0.331 2.543-0.269 3.879 0.055 1.335 0.325 2.612 0.81 3.833 0.485 1.22 1.248 2.277 2.291 3.171 1.038 0.886 2.421 1.495 4.149 1.828v0c1.774 0.342 3.314 0.296 4.62-0.139 1.314-0.439 2.419-1.139 3.317-2.1 0.898-0.961 1.616-2.061 2.154-3.302 0.538-1.241 0.928-2.493 1.172-3.756v0l2.619-13.59c0.385-1.997 0.587-3.557 0.606-4.68 0.013-1.125 0.024-1.92 0.032-2.387v0c0.366-0.174 0.836-0.267 1.408-0.279 0.571-0.005 1.066 0.032 1.486 0.113v0c0.642 0.124 1.177 0.393 1.606 0.809 0.436 0.417 0.563 1.096 0.381 2.039zM41.622-1.92l0.255-1.812c0.485-0.147 1.187-0.23 2.106-0.249 0.925-0.018 1.918 0.007 2.978 0.076 1.055 0.061 2.002 0.151 2.84 0.269v0c0.667 0.094 1.171 0.219 1.513 0.374 0.348 0.157 0.477 0.559 0.386 1.206v0l-0.817 5.803 3.686-3.945c1.745-1.875 3.819-2.643 6.222-2.305v0c0.29 0.041 0.663 0.12 1.117 0.238 0.447 0.124 0.842 0.307 1.185 0.551 0.348 0.251 0.494 0.578 0.438 0.98v0c-0.022 0.158-0.057 0.285-0.104 0.38v0l-1.519 3.26c-0.587-0.278-1.122-0.491-1.607-0.641-0.476-0.155-0.926-0.262-1.348-0.321v0c-0.865-0.122-1.728 0.006-2.589 0.383-0.86 0.37-1.669 0.856-2.427 1.456-0.758 0.6-1.438 1.198-2.04 1.793-0.602 0.595-1.092 1.058-1.468 1.389v0l-1.058 7.516c-0.279 1.98-0.406 3.531-0.382 4.652 0.024 1.121 0.053 1.916 0.088 2.385v0c-0.469 0.176-1.053 0.286-1.753 0.329-0.693 0.044-1.297 0.029-1.812-0.043v0c-0.825-0.116-1.482-0.377-1.97-0.782-0.482-0.404-0.66-1.049-0.535-1.934v0l2.873-20.408zM75.647-11.443l-1.313 13.386c1.278-0.672 2.717-1.234 4.315-1.687 1.598-0.446 3.143-0.596 4.636-0.45v0c2.475 0.243 4.436 1.005 5.885 2.286 1.443 1.274 2.436 2.895 2.979 4.864 0.544 1.969 0.702 4.112 0.475 6.427v0c-0.26 2.654-1.07 4.969-2.43 6.946-1.353 1.977-3.11 3.466-5.271 4.467-2.155 1.001-4.579 1.369-7.273 1.105v0c-2.249-0.221-4.337-0.717-6.265-1.489-1.927-0.772-3.497-1.495-4.71-2.17v0l3.207-32.683-4.3-0.422 0.181-1.841c0.479-0.167 1.18-0.279 2.103-0.337 0.93-0.056 1.923-0.073 2.979-0.049 1.05 0.016 1.996 0.065 2.839 0.148v0c0.663 0.065 1.172 0.169 1.527 0.311 0.354 0.142 0.5 0.538 0.436 1.188zM82.171 2.661v0c-1.347-0.132-2.71-0.028-4.09 0.312-1.386 0.34-2.712 0.776-3.977 1.308v0l-1.723 17.566c-0.002 0.02 0.263 0.12 0.794 0.299 0.531 0.186 1.208 0.383 2.032 0.591 0.816 0.214 1.656 0.363 2.518 0.448v0c2.607 0.256 4.656-0.581 6.145-2.512 1.49-1.937 2.41-4.694 2.761-8.27v0c0.273-2.787 0.091-5.059-0.547-6.816-0.631-1.757-1.936-2.732-3.913-2.926zM113.892 25.781l0.012-0.25c0.001-0.013-0.239 0.115-0.72 0.384-0.474 0.27-1.117 0.578-1.929 0.924-0.806 0.353-1.695 0.652-2.669 0.896-0.974 0.244-1.966 0.341-2.978 0.29v0c-1.412-0.071-2.707-0.394-3.886-0.968-1.179-0.574-2.104-1.422-2.775-2.544-0.678-1.116-0.974-2.509-0.89-4.18v0c0.095-1.871 0.71-3.342 1.846-4.412 1.135-1.064 2.668-1.797 4.597-2.201 1.929-0.396 4.122-0.532 6.579-0.407v0l3.435 0.174 0.093-1.828c0.064-1.272 0.041-2.454-0.071-3.548-0.104-1.1-0.413-1.993-0.925-2.68-0.513-0.687-1.345-1.059-2.497-1.118v0c-1.092-0.055-2.207 0.142-3.344 0.591-1.138 0.45-2.227 1.005-3.269 1.667-1.048 0.668-1.995 1.304-2.84 1.909v0l-1.862-2.778c-0.232-0.305-0.339-0.615-0.323-0.927v0c0.027-0.533 0.385-1.002 1.072-1.408 0.688-0.406 1.563-0.745 2.625-1.018 1.055-0.274 2.17-0.464 3.344-0.572 1.167-0.114 2.247-0.147 3.239-0.096v0c1.997 0.101 3.816 0.514 5.454 1.237 1.632 0.73 2.911 1.83 3.838 3.299 0.927 1.475 1.33 3.385 1.212 5.728v0l-0.688 13.583 4.244 0.215-0.092 1.827c-0.568 0.278-1.49 0.485-2.765 0.621-1.281 0.129-2.515 0.163-3.7 0.103v0c-0.799-0.04-1.561-0.213-2.287-0.516-0.725-0.31-1.085-0.976-1.08-1.997zM107.499 24.496v0c0.573 0.029 1.229-0.011 1.968-0.121 0.733-0.11 1.448-0.247 2.144-0.412 0.696-0.172 1.271-0.319 1.724-0.443 0.454-0.124 0.68-0.186 0.681-0.186v0l0.347-6.851-4.095-0.208c-0.812-0.041-1.727 0.023-2.743 0.192-1.01 0.169-1.89 0.548-2.641 1.138-0.757 0.589-1.168 1.503-1.23 2.741v0c-0.058 1.152 0.243 2.115 0.905 2.889 0.662 0.774 1.642 1.195 2.94 1.261zM131.071 26.267l0.04-20.66-4.3-0.008 0.003-1.83c0.46-0.212 1.144-0.391 2.051-0.536 0.914-0.145 1.901-0.256 2.961-0.334 1.053-0.078 2.004-0.116 2.85-0.115v0c0.673 0.001 1.19 0.052 1.55 0.153 0.366 0.107 0.549 0.488 0.548 1.141v0l-0.002 1.2c0.327-0.113 1.014-0.401 2.061-0.866 1.041-0.465 2.288-0.909 3.743-1.333 1.461-0.431 2.965-0.644 4.511-0.641v0c1.887 0.004 3.309 0.343 4.268 1.018 0.959 0.682 1.607 1.603 1.945 2.764 0.344 1.167 0.515 2.498 0.512 3.991v0l-0.03 15.56 4.25 0.008-0.003 1.83c-0.554 0.306-1.468 0.557-2.742 0.755-1.267 0.191-2.487 0.285-3.66 0.283v0c-0.993-0.002-1.823-0.147-2.49-0.435-0.666-0.288-0.998-0.925-0.996-1.912v0l0.03-15.61c0.003-1.64-0.215-2.824-0.653-3.551-0.439-0.728-1.358-1.093-2.758-1.096v0c-0.667-0.001-1.437 0.067-2.31 0.206-0.874 0.138-1.727 0.297-2.561 0.475-0.84 0.178-1.551 0.34-2.131 0.486-0.574 0.146-0.904 0.232-0.991 0.258v0l-0.025 13.36c-0.004 2 0.083 3.554 0.261 4.661 0.178 1.107 0.316 1.891 0.415 2.35v0c-0.44 0.239-1.004 0.428-1.691 0.567-0.68 0.139-1.28 0.208-1.8 0.207v0c-0.833-0.002-1.52-0.17-2.059-0.504-0.533-0.334-0.798-0.948-0.797-1.842zM179.949 25.295l-1.456-20.609-4.289 0.303-0.129-1.826c0.444-0.245 1.113-0.473 2.007-0.683 0.901-0.211 1.877-0.393 2.928-0.547 1.045-0.154 1.99-0.261 2.835-0.321v0c0.672-0.047 1.191-0.034 1.556 0.041 0.373 0.081 0.583 0.447 0.629 1.098v0l0.085 1.197c0.318-0.136 0.982-0.474 1.994-1.013 1.005-0.539 2.217-1.072 3.636-1.6 1.426-0.535 2.91-0.857 4.453-0.966v0c1.882-0.133 3.325 0.103 4.33 0.706 1.006 0.611 1.719 1.483 2.14 2.616 0.428 1.139 0.695 2.454 0.8 3.943v0l1.096 15.522 4.24-0.3 0.128 1.826c-0.53 0.345-1.424 0.662-2.679 0.951-1.25 0.282-2.46 0.464-3.631 0.547v0c-0.991 0.07-1.829-0.015-2.514-0.253-0.685-0.239-1.063-0.851-1.132-1.835v0l-1.1-15.571c-0.116-1.636-0.418-2.801-0.908-3.495-0.49-0.694-1.433-0.991-2.83-0.893v0c-0.665 0.047-1.428 0.171-2.29 0.372-0.861 0.201-1.701 0.421-2.519 0.66-0.825 0.239-1.522 0.452-2.091 0.638-0.562 0.187-0.885 0.296-0.969 0.33v0l0.942 13.326c0.141 1.995 0.34 3.538 0.597 4.63 0.258 1.091 0.452 1.863 0.585 2.314v0c-0.422 0.27-0.971 0.5-1.646 0.688-0.668 0.188-1.262 0.3-1.781 0.336v0c-0.831 0.059-1.528-0.059-2.09-0.353-0.555-0.295-0.865-0.888-0.927-1.779zM210.473 12.297v0c-0.302-2.569-0.024-4.911 0.836-7.025 0.86-2.108 2.247-3.842 4.161-5.202 1.914-1.366 4.3-2.217 7.16-2.554v0c2.152-0.253 4.051-0.027 5.699 0.68 1.648 0.712 2.97 1.738 3.966 3.077 0.99 1.34 1.583 2.845 1.78 4.513v0c0.089 0.755 0.082 1.524-0.021 2.309-0.109 0.785-0.402 1.46-0.879 2.026-0.485 0.56-1.27 0.904-2.356 1.032v0l-14.5 1.705c0.667 2.875 2.078 4.968 4.232 6.279 2.154 1.311 4.652 1.799 7.492 1.465v0c1.993-0.234 4.024-0.826 6.095-1.774v0l0.986 1.536c-1.207 1.041-2.627 1.863-4.261 2.464-1.634 0.602-3.259 0.997-4.875 1.188v0c-1.774 0.209-3.529 0.133-5.263-0.227-1.727-0.361-3.316-1.023-4.764-1.988-1.448-0.957-2.661-2.224-3.639-3.801-0.97-1.571-1.586-3.472-1.849-5.703zM215.919 9.885l12.563-1.477c0.061-0.336 0.089-0.668 0.084-0.997-0.011-0.321-0.037-0.66-0.079-1.018v0c-0.125-1.066-0.478-2.092-1.057-3.077-0.585-0.978-1.364-1.753-2.337-2.323-0.981-0.576-2.126-0.787-3.437-0.633v0c-1.649 0.194-2.905 0.754-3.77 1.681-0.864 0.934-1.433 2.088-1.707 3.463-0.275 1.375-0.361 2.835-0.26 4.381zM241.471 17.765l1.497-2.984c0.647 0.329 1.468 0.734 2.463 1.216 0.989 0.483 2.065 0.878 3.228 1.185 1.164 0.313 2.309 0.38 3.434 0.2v0c1.06-0.17 1.958-0.631 2.696-1.384 0.737-0.753 1.015-1.692 0.835-2.817v0c-0.142-0.889-0.617-1.576-1.424-2.061-0.801-0.493-1.71-0.877-2.726-1.154-1.015-0.27-1.918-0.507-2.707-0.711v0c-1.348-0.365-2.679-0.77-3.992-1.214-1.321-0.45-2.457-1.112-3.407-1.987-0.958-0.88-1.568-2.139-1.83-3.778v0c-0.266-1.659 0.048-3.073 0.942-4.242 0.892-1.176 2.088-2.117 3.589-2.823 1.5-0.713 3.046-1.196 4.638-1.451v0c0.994-0.159 2.047-0.267 3.159-0.323 1.113-0.05 2.073-0.001 2.879 0.146 0.808 0.154 1.249 0.462 1.323 0.923v0c0.018 0.112-0.001 0.29-0.056 0.535v0l-1.134 3.423c-0.446-0.212-1.095-0.47-1.946-0.772-0.844-0.297-1.781-0.542-2.811-0.735-1.029-0.186-2.057-0.197-3.084-0.033v0c-1.113 0.178-1.98 0.58-2.602 1.206-0.622 0.626-0.857 1.413-0.706 2.361v0c0.157 0.981 0.64 1.744 1.45 2.29 0.81 0.546 1.81 0.976 3.002 1.292 1.184 0.31 2.432 0.6 3.744 0.869 1.312 0.269 2.573 0.614 3.781 1.035 1.203 0.429 2.23 1.027 3.083 1.796 0.846 0.769 1.375 1.822 1.589 3.158v0c0.227 1.415 0.118 2.658-0.325 3.728-0.451 1.065-1.122 1.975-2.013 2.733-0.893 0.751-1.914 1.353-3.063 1.807-1.148 0.461-2.298 0.783-3.451 0.967v0c-1.001 0.16-2.071 0.22-3.212 0.18-1.147-0.039-2.232-0.152-3.254-0.34-1.028-0.18-1.878-0.408-2.551-0.685-0.673-0.284-1.037-0.594-1.09-0.93v0c-0.034-0.211-0.016-0.419 0.052-0.626zM284.364 9.788l1.094 1.495c-0.981 0.91-2.01 1.713-3.088 2.411-1.078 0.698-2.512 1.225-4.304 1.582v0c-2.327 0.464-4.31 0.136-5.948-0.985-1.636-1.115-2.7-2.901-3.19-5.359v0l-2.887-14.465-4.952 0.989-0.215-1.079c-0.144-0.719-0.084-1.241 0.177-1.565 0.255-0.323 0.726-0.553 1.412-0.69v0l2.991-0.597-1.139-5.707c-0.175-0.876-0.028-1.521 0.44-1.934 0.467-0.419 1.106-0.71 1.917-0.872v0c0.51-0.102 1.113-0.161 1.81-0.177 0.692-0.009 1.279 0.071 1.761 0.24v0c-0.003 0.463 0.018 1.264 0.062 2.404 0.043 1.134 0.279 2.779 0.71 4.937v0l8.335-1.664 0.206 1.03c0.14 0.7 0.081 1.224-0.176 1.575-0.256 0.35-0.728 0.594-1.414 0.731v0l-6.364 1.27 2.8 14.033c0.723 3.622 2.408 5.169 5.056 4.64v0c0.798-0.159 1.573-0.429 2.326-0.811 0.76-0.383 1.38-0.731 1.862-1.044 0.488-0.315 0.727-0.444 0.718-0.388z" opacity="1" transform="matrix(1,0,0,1,0,0)" fill="#fa4238" class="wordmark-text-0" data-fill-palette-color="primary" id="text-0"></path></svg></g></svg></g></svg></g></svg></g><g transform="matrix(1,0,0,1,163.19007354479024,0)"><svg viewBox="0 0 69.1398529104195 69.1398529104195" height="69.1398529104195" width="69.1398529104195"><g><svg xmlns="http://www.w3.org/2000/svg" xmlns:xlink="http://www.w3.org/1999/xlink" version="1.1" x="0" y="0" viewBox="10 10 80 80" style="enable-background:new 0 0 100 100;" xml:space="preserve" height="69.1398529104195" width="69.1398529104195" class="icon-icon-0" data-fill-palette-color="accent" id="icon-0"><path d="M89 88H88.445V35.812A1 1 0 0 0 87.445 34.812H85.731V28A1 1 0 0 0 84.731 27H64.431A1 1 0 0 0 63.431 28V34.812H61.716A1 1 0 0 0 60.716 35.812V88H55.739V61.808A1 1 0 0 0 54.739 60.808H52.406V26.986A1 1 0 0 0 51.406 25.986H46.054V11A1 1 0 0 0 45.054 10H22.24A1 1 0 0 0 21.24 11V25.986H15.888A1 1 0 0 0 14.888 26.986V60.808H12.555A1 1 0 0 0 11.555 61.808V88H11A1 1 0 1 0 11 90H89A1 1 0 1 0 89 88M65.431 29H83.731V34.812H65.431zM86.445 36.812V48.798H62.715V36.812zM62.715 50.798H86.446V88H81.495V55.863A1 1 0 1 0 79.494 55.863V88H75.58V55.863A1 1 0 1 0 73.58 55.863V88H69.667V55.863A1 1 0 1 0 67.667 55.863V88H62.716zM23.24 12H44.054V25.986H23.24zM16.888 27.986H50.406V60.808H16.888zM13.555 62.808H53.739V88H48.48V68.57A1 1 0 1 0 46.481 68.57V88H41.564V68.57A1 1 0 1 0 39.564 68.57V88H34.647V68.57A1 1 0 1 0 32.647 68.57V88H27.729V68.57A1 1 0 1 0 25.73 68.57V88H20.813V68.57A1 1 0 1 0 18.813 68.57V88H13.555z" fill="#fa4238" data-fill-palette-color="accent"></path><path d="M43.848 33.008A1 1 0 0 0 42.848 34.008V55.863A1 1 0 1 0 44.848 55.863V34.008A1 1 0 0 0 43.848 33.008" fill="#fa4238" data-fill-palette-color="accent"></path><path d="M36.93 33.008A1 1 0 0 0 35.93 34.008V55.863A1 1 0 1 0 37.93 55.863V34.008A1 1 0 0 0 36.93 33.008" fill="#fa4238" data-fill-palette-color="accent"></path><path d="M30.013 33.008A1 1 0 0 0 29.013 34.008V55.863A1 1 0 1 0 31.013 55.863V34.008A1 1 0 0 0 30.013 33.008" fill="#fa4238" data-fill-palette-color="accent"></path><path d="M23.096 33.008A1 1 0 0 0 22.096 34.008V55.863A1 1 0 1 0 24.096 55.863V34.008A1 1 0 0 0 23.096 33.008" fill="#fa4238" data-fill-palette-color="accent"></path><path d="M66.697 43.61H82.464A1 1 0 1 0 82.464 41.61H66.697A1 1 0 1 0 66.697 43.61" fill="#fa4238" data-fill-palette-color="accent"></path></svg></g></svg></g><g></g></svg></g><defs></defs></svg><rect width="395.52" height="142.61449460930834" fill="none" stroke="none" visibility="hidden"></rect></g></svg>